<?xml version="1.0" standalone="no"?>
<!DOCTYPE svg PUBLIC "-//W3C//DTD SVG 20010904//EN"
 "http://www.w3.org/TR/2001/REC-SVG-20010904/DTD/svg10.dtd">
<svg version="1.0" xmlns="http://www.w3.org/2000/svg"
 width="512.000000pt" height="512.000000pt" viewBox="0 0 512.000000 512.000000"
 preserveAspectRatio="xMidYMid meet">

<g transform="translate(0.000000,512.000000) scale(0.100000,-0.100000)"
fill="#000000" stroke="none">
<path d="M384 4181 c-12 -5 -31 -22 -44 -38 -20 -26 -22 -35 -16 -108 27 -362
221 -828 479 -1153 44 -55 47 -62 26 -58 -13 3 -60 13 -104 21 -44 9 -199 45
-344 80 -145 36 -277 65 -293 65 -52 0 -98 -68 -84 -122 10 -43 170 -243 286
-359 193 -193 406 -351 612 -452 100 -49 108 -54 118 -90 6 -21 13 -44 16 -51
6 -15 -266 -126 -466 -191 -126 -41 -157 -62 -166 -110 -13 -73 24 -102 229
-179 205 -77 418 -118 676 -132 l135 -7 88 -67 c173 -132 369 -220 593 -268
114 -25 135 -26 430 -26 342 -1 411 7 592 65 172 55 303 124 447 234 l82 62
134 7 c251 13 455 52 663 126 142 50 216 89 233 123 20 37 11 87 -19 114 -12
11 -91 43 -174 72 -123 41 -421 156 -430 165 -1 1 5 24 13 51 l16 50 107 53
c205 100 421 260 611 451 116 117 276 317 286 358 15 56 -32 123 -86 123 -17
0 -128 -24 -248 -54 -199 -50 -397 -95 -480 -110 l-34 -6 50 63 c175 220 334
532 411 804 34 120 71 322 71 388 0 75 -69 131 -131 106 -13 -5 -69 -51 -124
-102 -216 -200 -486 -412 -718 -564 l-118 -77 -32 26 c-206 169 -403 274 -605
323 -82 19 -123 9 -147 -38 -42 -80 -7 -128 120 -164 205 -59 364 -150 519
-296 198 -188 316 -401 372 -669 25 -115 25 -351 1 -473 -95 -477 -446 -850
-916 -973 -161 -42 -466 -56 -717 -34 -559 50 -1011 456 -1121 1007 -24 122
-24 358 1 473 53 252 160 455 334 633 162 165 335 268 558 332 62 17 96 33
112 51 41 47 20 130 -39 154 -40 17 -124 -2 -273 -60 -150 -59 -263 -128 -433
-266 l-32 -26 -118 77 c-260 171 -520 379 -798 637 -34 31 -79 42 -111 29z
m351 -507 c93 -77 309 -236 423 -311 61 -41 112 -76 112 -79 0 -3 -17 -28 -39
-57 -47 -64 -132 -214 -157 -279 -11 -27 -21 -48 -24 -48 -8 1 -123 149 -174
224 -69 103 -150 248 -197 356 -43 100 -109 290 -109 317 0 10 19 -1 58 -33
31 -27 80 -67 107 -90z m3795 46 c-73 -246 -219 -521 -394 -742 -59 -75 -76
-90 -76 -67 0 24 -85 185 -145 275 -36 54 -62 101 -58 105 5 4 58 41 120 82
138 93 347 250 473 355 52 44 96 76 98 72 2 -5 -6 -41 -18 -80z m-3972 -1044
c88 -20 215 -45 282 -56 68 -11 124 -21 126 -22 1 -2 -1 -81 -4 -175 l-7 -173
-105 66 c-58 36 -136 89 -175 119 -129 99 -337 299 -293 282 9 -3 89 -22 176
-41z m4165 12 c-121 -137 -337 -308 -514 -411 l-46 -26 -6 172 c-3 95 -4 173
-3 174 1 2 70 14 152 28 82 14 212 40 289 59 77 18 144 34 149 35 4 0 -5 -14
-21 -31z m-3587 -1000 c9 -18 39 -66 66 -107 l50 -74 -74 7 c-83 8 -301 50
-344 67 -28 10 -21 14 126 74 85 35 156 64 157 65 1 0 10 -15 19 -32z m3034
-37 c138 -57 143 -60 116 -70 -43 -17 -261 -59 -344 -67 l-74 -7 50 74 c27 41
57 89 66 107 10 19 23 31 29 28 7 -2 77 -32 157 -65z"/>
<path d="M2507 3819 c-22 -13 -47 -61 -47 -93 0 -14 13 -40 29 -58 24 -27 36
-33 71 -33 35 0 47 6 71 33 16 18 29 44 29 58 0 33 -25 81 -49 94 -25 13 -81
12 -104 -1z"/>
<path d="M1889 2901 c-40 -40 -40 -89 0 -133 24 -27 36 -33 71 -33 35 0 47 6
71 33 40 44 40 93 0 133 -23 23 -38 29 -71 29 -33 0 -48 -6 -71 -29z"/>
<path d="M3089 2901 c-40 -40 -40 -89 0 -133 24 -27 36 -33 71 -33 35 0 47 6
71 33 40 44 40 93 0 133 -23 23 -38 29 -71 29 -33 0 -48 -6 -71 -29z"/>
<path d="M1588 2299 c-30 -29 -31 -32 -25 -101 11 -125 82 -242 188 -305 93
-56 154 -65 388 -61 234 5 277 15 371 89 l50 39 52 -40 c98 -74 136 -83 365
-88 124 -2 222 0 255 7 180 38 310 182 325 359 6 69 5 72 -25 101 -64 65 -172
23 -172 -66 -1 -76 -69 -171 -138 -190 -35 -10 -389 -10 -424 0 -69 19 -137
114 -138 190 0 88 -108 131 -171 68 -22 -22 -29 -39 -29 -68 -1 -76 -69 -171
-138 -190 -35 -10 -389 -10 -424 0 -69 19 -137 114 -138 190 0 89 -108 131
-172 66z"/>
</g>
</svg>
